<svg width="56" height="56" viewBox="0 0 56 56" fill="none" xmlns="http://www.w3.org/2000/svg">
<path opacity="0.2" d="M28 7C23.752 7.00004 19.6039 8.28838 16.1033 10.6949C12.6027 13.1015 9.9143 16.5131 8.39295 20.4793C6.87159 24.4455 6.58885 28.7799 7.58206 32.9102C8.57527 37.0404 10.7977 40.7724 13.956 43.6133V43.6131C15.2736 41.0208 17.2832 38.844 19.762 37.3238C22.2408 35.8035 25.0921 34.9992 28 35C26.2694 35 24.5777 34.4868 23.1388 33.5254C21.6998 32.5639 20.5783 31.1973 19.9161 29.5985C19.2538 27.9996 19.0805 26.2403 19.4181 24.543C19.7558 22.8456 20.5891 21.2865 21.8128 20.0628C23.0365 18.8391 24.5956 18.0057 26.293 17.6681C27.9903 17.3305 29.7496 17.5038 31.3485 18.1661C32.9473 18.8283 34.3139 19.9498 35.2754 21.3888C36.2368 22.8277 36.75 24.5194 36.75 26.25C36.75 28.5706 35.8281 30.7962 34.1872 32.4372C32.5462 34.0781 30.3206 35 28 35C30.9079 34.9992 33.7592 35.8035 36.238 37.3238C38.7168 38.844 40.7264 41.0208 42.044 43.6131C45.2023 40.7722 47.4247 37.0402 48.4179 32.91C49.4112 28.7797 49.1284 24.4454 47.6071 20.4792C46.0857 16.513 43.3973 13.1014 39.8967 10.6948C36.3961 8.28832 32.248 7.00001 28 7Z" fill="#FBBC00"/>
<path d="M28 49C39.598 49 49 39.598 49 28C49 16.402 39.598 7 28 7C16.402 7 7 16.402 7 28C7 39.598 16.402 49 28 49Z" stroke="#FBBC00" stroke-width="2.5" stroke-miterlimit="10"/>
<path d="M28 35C32.8325 35 36.75 31.0825 36.75 26.25C36.75 21.4175 32.8325 17.5 28 17.5C23.1675 17.5 19.25 21.4175 19.25 26.25C19.25 31.0825 23.1675 35 28 35Z" stroke="#FBBC00" stroke-width="2.5" stroke-miterlimit="10"/>
<path d="M13.9564 43.6131C15.2746 41.0214 17.2843 38.8449 19.763 37.3248C22.2417 35.8046 25.0926 35 28.0003 35C30.908 35 33.759 35.8046 36.2377 37.3247C38.7164 38.8449 40.7261 41.0213 42.0443 43.613" stroke="#FBBC00" stroke-width="2.5" stroke-linecap="round" stroke-linejoin="round"/>
</svg>
