<svg width="56" height="56" viewBox="0 0 56 56" fill="none" xmlns="http://www.w3.org/2000/svg">
<path opacity="0.2" d="M45.5 19.25H10.5C9.5335 19.25 8.75 20.0335 8.75 21V45.5C8.75 46.4665 9.5335 47.25 10.5 47.25H45.5C46.4665 47.25 47.25 46.4665 47.25 45.5V21C47.25 20.0335 46.4665 19.25 45.5 19.25Z" fill="#FBBC00"/>
<path d="M45.5 19.25H10.5C9.5335 19.25 8.75 20.0335 8.75 21V45.5C8.75 46.4665 9.5335 47.25 10.5 47.25H45.5C46.4665 47.25 47.25 46.4665 47.25 45.5V21C47.25 20.0335 46.4665 19.25 45.5 19.25Z" stroke="#FBBC00" stroke-width="2.5" stroke-linecap="round" stroke-linejoin="round"/>
<path d="M20.125 19.25V11.375C20.125 9.28642 20.9547 7.28338 22.4315 5.80653C23.9084 4.32969 25.9114 3.5 28 3.5C30.0886 3.5 32.0916 4.32969 33.5685 5.80653C35.0453 7.28338 35.875 9.28642 35.875 11.375V19.25" stroke="#FBBC00" stroke-width="2.5" stroke-linecap="round" stroke-linejoin="round"/>
<path d="M28 35.875C29.4497 35.875 30.625 34.6997 30.625 33.25C30.625 31.8003 29.4497 30.625 28 30.625C26.5503 30.625 25.375 31.8003 25.375 33.25C25.375 34.6997 26.5503 35.875 28 35.875Z" fill="#FBBC00"/>
</svg>
