<svg width="375" height="812" viewBox="0 0 375 812" fill="none" xmlns="http://www.w3.org/2000/svg">
<mask id="mask0" mask-type="alpha" maskUnits="userSpaceOnUse" x="0" y="0" width="375" height="812">
<rect width="375" height="812" fill="#005F5F"/>
</mask>
<g mask="url(#mask0)">
<path opacity="0.7" d="M442.655 860.6H-133.424L-67.2847 693.893L-67.2264 693.746L-67.2844 693.599L-111.985 580.155L-20.9639 350.584L23.3661 463.087L23.7371 464.028L24.1101 463.087L207.559 0.4H363.548L704.675 860.6H522.653L287.026 266.605L286.653 265.666L286.282 266.605L246.857 366.317L246.799 366.464L246.857 366.611L442.655 860.6ZM-60.9319 580.066L-60.99 580.213L-60.9321 580.36L-16.2318 693.804L-62.9891 811.65L-63.2063 812.197H-62.6173H109.807H110.396L110.179 811.65L-1.97392 528.957L-1.8317 528.598L-1.7733 528.451L-1.83159 528.303L-20.7628 480.451L-21.1347 479.511L-21.5067 480.451L-60.9319 580.066ZM240.82 812.19H241.409L241.192 811.643L89.5631 428.915L89.192 427.978L88.8196 428.914L49.2797 528.295L49.221 528.443L49.2793 528.59L161.29 811.937L161.39 812.19H161.662H240.82ZM331.813 49.0039L331.713 48.7512L331.441 48.7514L239.638 48.7954L239.366 48.7955L239.266 49.0481L223.001 90.1299L222.784 90.6771H223.373H268.326L554.359 811.901L554.459 812.153H554.731H633.868H634.457L634.24 811.606L331.813 49.0039ZM371.848 812.315H372.437L372.22 811.767L195.776 366.618L261.041 201.448L261.099 201.3L261.041 201.153L236.547 139.296L236.447 139.043H236.176H203.825H203.554L203.453 139.296L114.568 363.485L114.509 363.632L114.568 363.78L292.339 812.062L292.44 812.315H292.711H371.848Z" stroke="#FBBC00" stroke-width="0.8"/>
</g>
</svg>
